<svg width="120" height="90" viewBox="0 0 120 90" fill="none" xmlns="http://www.w3.org/2000/svg">
<g filter="url(#filter0_d_22:2)">
<rect x="20" y="16" width="80" height="50" rx="20" fill="white"/>
<rect x="20.5" y="16.5" width="79" height="49" rx="19.5" stroke="black"/>
</g>
<path d="M43.9362 39.45C44.3502 37.542 44.3502 36.084 44.3502 35.058V34.194H36.3582V35.382H42.9102C42.9102 36.354 42.8742 37.614 42.4962 39.324L43.9362 39.45ZM45.4842 40.458C43.8282 40.656 42.0102 40.782 40.2462 40.854V37.704H38.7882V40.89C37.5822 40.926 36.3942 40.926 35.3682 40.926L35.5302 42.15C38.4282 42.15 42.2442 42.06 45.5922 41.538L45.4842 40.458ZM42.8382 48.126C40.4442 48.126 38.9682 47.478 38.9682 46.362C38.9682 45.264 40.4442 44.616 42.8382 44.616C45.2322 44.616 46.7082 45.264 46.7082 46.362C46.7082 47.478 45.2322 48.126 42.8382 48.126ZM42.8382 43.464C39.5262 43.464 37.4742 44.526 37.4742 46.362C37.4742 48.234 39.5262 49.296 42.8382 49.296C46.1502 49.296 48.2022 48.234 48.2022 46.362C48.2022 44.526 46.1502 43.464 42.8382 43.464ZM48.0402 37.596V33.168H46.5642V43.248H48.0402V38.82H50.3262V37.596H48.0402ZM63.8428 42.744H65.3368V33.204H63.8428V36.624H60.3328V37.83H63.8428V42.744ZM61.5028 40.836C59.1448 40.008 57.5788 38.01 57.5788 35.706V34.104H56.1028V35.76C56.1028 38.226 54.5008 40.386 52.0168 41.268L52.7908 42.474C54.7348 41.736 56.1928 40.278 56.8768 38.37C57.5788 40.044 58.9468 41.322 60.7108 41.988L61.5028 40.836ZM60.0088 48.144C57.5788 48.144 56.1028 47.442 56.1028 46.272C56.1028 45.084 57.5788 44.382 60.0088 44.382C62.4388 44.382 63.9148 45.084 63.9148 46.272C63.9148 47.442 62.4388 48.144 60.0088 48.144ZM60.0088 43.23C56.6968 43.23 54.6268 44.328 54.6268 46.272C54.6268 48.198 56.6968 49.314 60.0088 49.314C63.3208 49.314 65.3908 48.198 65.3908 46.272C65.3908 44.328 63.3208 43.23 60.0088 43.23ZM79.9874 36.408C79.9874 38.352 79.9874 40.62 79.3754 43.716L80.8514 43.878C81.4634 40.62 81.4634 38.406 81.4634 36.408V34.806H70.1414V36.012H79.9874V36.408ZM75.7574 45.858V40.08H74.2814V45.858H68.6114V47.064H83.2094V45.858H75.7574Z" fill="black"/>
<defs>
<filter id="filter0_d_22:2" x="0" y="0" width="120" height="90" filterUnits="userSpaceOnUse" color-interpolation-filters="sRGB">
<feFlood flood-opacity="0" result="BackgroundImageFix"/>
<feColorMatrix in="SourceAlpha" type="matrix" values="0 0 0 0 0 0 0 0 0 0 0 0 0 0 0 0 0 0 127 0" result="hardAlpha"/>
<feOffset dy="4"/>
<feGaussianBlur stdDeviation="10"/>
<feColorMatrix type="matrix" values="0 0 0 0 1 0 0 0 0 0.647059 0 0 0 0 0.00784314 0 0 0 0.5 0"/>
<feBlend mode="normal" in2="BackgroundImageFix" result="effect1_dropShadow_22:2"/>
<feBlend mode="normal" in="SourceGraphic" in2="effect1_dropShadow_22:2" result="shape"/>
</filter>
</defs>
</svg>
